PathFileType	4	(X/Y/Z)	72_2_113_p1_0-494_filt_butterworth.trc
DataRate	CameraRate	NumFrames	NumMarkers	Units	OrigDataRate	OrigDataStartFrame	OrigNumFrames
60.0	60.0	4	27	m	60.0	0	494
Frame#	Time	RHip			RKnee			RAnkle			RBigToe			RSmallToe			RHeel			LHip			LKnee			LAnkle			LBigToe			LSmallToe			LHeel			Neck			Head			Nose			RShoulder			RElbow			RWrist			RThumb			RIndex			RPinky			LShoulder			LElbow			LWrist			LThumb			LIndex			LPinky			
		X1	Y1	Z1	X2	Y2	Z2	X3	Y3	Z3	X4	Y4	Z4	X5	Y5	Z5	X6	Y6	Z6	X7	Y7	Z7	X8	Y8	Z8	X9	Y9	Z9	X10	Y10	Z10	X11	Y11	Z11	X12	Y12	Z12	X13	Y13	Z13	X14	Y14	Z14	X15	Y15	Z15	X16	Y16	Z16	X17	Y17	Z17	X18	Y18	Z18	X19	Y19	Z19	X20	Y20	Z20	X21	Y21	Z21	X22	Y22	Z22	X23	Y23	Z23	X24	Y24	Z24	X25	Y25	Z25	X26	Y26	Z26	X27	Y27	Z27	
0	0.0	0.20550385176163796	0.4915778616462567	0.6190274843235961	0.2244215562495816	0.567270419051497	1.0580955826845262	0.2108364270973931	0.6239183977969659	1.4680566775262878	0.17453976875184127	0.4460150682479247	1.4864610185210687	0.24632396042514498	0.4535976894391218	1.4762221152196031	0.1890132414762516	0.7278227013834424	1.5583989817734551	-0.007571888503955993	0.5539505699926501	0.6319466055794285	-0.015202223862220485	0.611901521028541	1.055277219872075	-0.01589745270864057	0.6447279619943806	1.447316598539904	-0.024538628863114916	0.4211575784124269	1.4271558800715178	-0.08004194264815775	0.5059164041973684	1.4590729146686485	-0.0015236174365911152	0.7153146577522714	1.536036117246655	0.11847307940978385	0.5378575032971946	-0.01560559292483342	0.11521226727639589	0.49322806607766756	-0.2780663894918177	0.09516110381464146	0.403262847059678	-0.14336147061309348	0.28025611754998636	0.5339244259681656	0.08306354168582805	0.4172237345582209	0.5537744862009463	0.3441878352717253	0.28165841606918907	0.3887261584217434	0.48174172980527524	0.13108702087194635	0.35470804769310166	0.49805177344487483	0.13726079666805957	0.3384001527380988	0.5543138945436072	0.19468497676106938	0.3924385280839334	0.6032759470362525	-0.061036302360843425	0.5577219820502236	0.06739274519847889	-0.19644318342980174	0.604935974615187	0.3373560248661533	-0.07840909898339773	0.4742668952996255	0.5087369460350197	0.026724100687551246	0.4077839624138362	0.504859668036966	0.031332848199752523	0.3915625303212946	0.541185915971253	-0.018661246597991423	0.4352003413821511	0.6117808979667648
1	0.0166666666666666	0.2088593113436262	0.4963048861547942	0.6205282148219187	0.22617439748827967	0.5756964950217153	1.065426809901826	0.20848579069920473	0.6274692027509623	1.46879768274233	0.17507784067021312	0.44664877177189566	1.4885983640998326	0.24813566023818878	0.45436566945688617	1.4749221119266274	0.18652005644960992	0.7269078348348841	1.5578652377115714	-0.008620927146815581	0.5565049899459802	0.6331540275049216	-0.015561268912651768	0.6118886033123544	1.0574983003800302	-0.015971337135212645	0.6452791605603798	1.4449285603696997	-0.021684115931386562	0.42831204471741036	1.4315364649621847	-0.08079463760143571	0.5068055942466838	1.4574596645332667	-0.0014981375837294366	0.7020396077357746	1.5239164963455762	0.11852157527449061	0.537849164887291	-0.015777618652641632	0.11925538983380862	0.49136410318860735	-0.27595537621351013	0.09859509009789716	0.3988326889237285	-0.14461988850018762	0.2805672761243654	0.5343686279489517	0.08326502016652189	0.4176200753018584	0.5543289288830637	0.34141928993283965	0.27772230151913985	0.38617367207077447	0.47940388901257225	0.13188278622674834	0.3551311727970738	0.49952993061974676	0.13692529321428779	0.34364875306683984	0.55724377141197	0.19188597849692884	0.39301947877979104	0.6015199514105811	-0.06091566855842715	0.5585630889188344	0.06772145398972754	-0.1942458933075758	0.5968133827639437	0.3347657909378512	-0.07694496891651063	0.47487375973881835	0.5088817733548132	0.029344842578367284	0.40772362627683606	0.5050725780509862	0.03100575195181724	0.39117081903320483	0.5460797506716015	-0.021264242810871352	0.4350041721204986	0.6117584037478238
2	0.0333333333333333	0.2111699177907527	0.5006071422286253	0.6218873184019281	0.2275373203979786	0.5780021323430734	1.0679982527254992	0.20749114474044505	0.63372748228023	1.4714442997278843	0.17552946002379324	0.4471635836142605	1.4906218000908917	0.24978062712777233	0.4550824937679433	1.4737355319959282	0.18528337945103895	0.7267709416011275	1.558649113274776	-0.009839793484323426	0.5553023026119884	0.6323309713097904	-0.015618072124672908	0.611921715211361	1.0581517061048107	-0.01619820458927775	0.6451896815393907	1.4428429751209482	-0.01996575753437343	0.43259592133455244	1.4341669685328817	-0.08064449950418685	0.5057574942758085	1.4559229703898342	-0.0020379033686244072	0.6975784692154029	1.519320770232265	0.11856928968345311	0.5378357142402389	-0.01578568381956575	0.12173830327496281	0.4902185071681916	-0.2746901031817647	0.10105800827906769	0.39470761632240986	-0.14531601113518988	0.28079058640141563	0.534765900921576	0.08399370972613174	0.41732497861871876	0.555286282935472	0.3392621717339861	0.2746984237997344	0.38521123825692805	0.4776297549590565	0.13231239435730238	0.35822127026396033	0.5022742880027412	0.1363767903699759	0.3496911139914667	0.5597530697147615	0.18950389111319932	0.3957907892141276	0.6007658075127777	-0.060783984082793445	0.5587355580508944	0.06773135449851239	-0.19211806454983124	0.5907311815078958	0.33167734167480883	-0.07545785064730416	0.47538882473835625	0.509017398777061	0.03312684777861337	0.40732280145447225	0.5062021318024847	0.030611488616601283	0.39064799297649394	0.5502992084109799	-0.0228344696224425	0.43444091076541336	0.6116655077937689
3	0.05	0.21211727831131172	0.5033239872227052	0.6227695813598175	0.22817536189872933	0.5744499858837684	1.0655472115970497	0.2076511013107755	0.63997508941948	1.4743788636588904	0.1758041710156068	0.4474303182224662	1.4920241777902101	0.25086118886412134	0.4555608549265924	1.473170141131774	0.1853157063479256	0.7273571455196534	1.5605530061521344	-0.011009331396478934	0.5501053272055987	0.6296285067827312	-0.01539364456346228	0.6119918048273421	1.0573149571621692	-0.016542559843804122	0.6445890355279079	1.4411526840054605	-0.019480264622923526	0.4337986654863499	1.4349114926428659	-0.07947553019562942	0.501929674212198	1.4548240942622819	-0.0027489428298812374	0.7023216522506905	1.5222324576396247	0.11862207105174598	0.5378024514588824	-0.015384905742705153	0.1225249712972427	0.4898455235629443	-0.2743584007340378	0.10224174039884279	0.3919502036643588	-0.14514038115045905	0.280804462959352	0.5350275779891657	0.08514009279858674	0.41592155367792805	0.5567062003761106	0.33834352502201115	0.2726137388167324	0.386395383828013	0.47711151937030466	0.13190840751536015	0.36562713992906104	0.5074882995490654	0.13610052912310228	0.3596616678371047	0.5626794685432841	0.1874116552761203	0.40102506908649127	0.6010232606490429	-0.060329939064509036	0.557380982292186	0.0671061700265522	-0.18971647703294658	0.5861992438863605	0.32844793082682366	-0.07393217524830065	0.47573236360407256	0.5092095618765805	0.037369369463893916	0.40665446249198567	0.5085732314918684	0.030338338280984322	0.3892477125387832	0.5539349579503847	-0.023087842238612873	0.4326572186452171	0.6111692596803304
